<svg xmlns="http://www.w3.org/2000/svg" height="333.333" width="1333.333">
    <path
        d="M39.796 81.85c-6.043 2.295-11.293 5.514-15.745 9.669-4.454 4.152-7.993 9.125-10.61 14.924-2.633 5.801-4.328 12.284-5.092 19.436l-5.792 54.124c-.763 7.156-.455 13.632.932 19.433 1.38 5.799 3.853 10.778 7.418 14.927 3.566 4.152 8.127 7.372 13.683 9.658 5.548 2.295 12.194 3.447 19.923 3.447h75.27l2.992-27.925H47.718c-6.87 0-11.586-1.467-14.135-4.403-2.553-2.932-3.455-7.839-2.723-14.712l1.542-14.388h83.004l2.827-26.42H35.229l1.54-14.383c.738-6.872 2.682-11.742 5.853-14.606 3.172-2.862 8.193-4.295 15.063-4.295h75.057l2.991-27.917H60.462c-7.733 0-14.623 1.144-20.666 3.432M314.29 200.085c-4.451 2.788-9.327 4.187-14.622 4.187-3.864 0-7.43-.812-10.69-2.453-3.26-1.634-6.022-3.906-8.287-6.824-2.268-2.915-3.943-6.299-5.04-10.134-1.092-3.84-1.411-7.893-.952-12.16a37.12 37.12 0 013.589-12.48c1.925-3.909 4.328-7.318 7.215-10.241 2.892-2.907 6.142-5.224 9.768-6.933 3.614-1.703 7.358-2.56 11.222-2.56 5.155 0 9.627 1.361 13.418 4.066 3.789 2.7 6.496 5.856 8.116 9.471h30.278c-1.942-12.6-7.233-22.415-15.86-29.425-8.62-7.016-19.668-10.523-33.125-10.523-8.307 0-16.119 1.539-23.433 4.617-7.326 3.078-13.726 7.23-19.226 12.455-5.498 5.225-10.03 11.38-13.61 18.473-3.58 7.084-5.799 14.638-6.652 22.652-.863 8.02-.255 15.534 1.821 22.551 2.063 7.017 5.288 13.141 9.667 18.367 4.377 5.223 9.896 9.337 16.573 12.34 6.66 3.013 14.15 4.51 22.45 4.51 13.457 0 25.289-3.504 35.495-10.516 10.195-7.018 17.615-16.827 22.262-29.429h-30.284c-2.279 3.87-5.64 7.197-10.092 9.99m78.284-40.054c2.69-6.445 6.674-11.563 11.949-15.356 5.272-3.792 11.133-5.687 17.576-5.687 6.87 0 12.573 1.895 17.107 5.687 4.536 3.793 7.314 8.91 8.346 15.356h-54.978m72.124-27.812c-4.522-5.935-10.231-10.45-17.126-13.527-6.901-3.078-14.434-4.617-22.597-4.617-7.732 0-15.196 1.539-22.396 4.617-7.204 3.078-13.661 7.23-19.375 12.455-5.713 5.225-10.45 11.38-14.22 18.473-3.758 7.084-6.072 14.638-6.929 22.652-.864 8.02-.155 15.534 2.099 22.551 2.253 7.017 5.678 13.141 10.274 18.367 4.599 5.223 10.167 9.337 16.719 12.34 6.547 3.013 13.69 4.51 21.424 4.51 13.885 0 25.821-3.466 35.799-10.41 9.976-6.945 17.216-16.076 21.717-27.382h-30.279c-2.91 4.436-6.59 7.692-11.029 9.767-4.452 2.081-9.033 3.119-13.756 3.119-6.735 0-12.355-1.933-16.885-5.8-4.528-3.866-7.355-9.239-8.472-16.11h83.537c2.164-10.88 2.419-20.618.759-29.201-1.656-8.596-4.742-15.857-9.264-21.804m104.168 52.19c-1.908 3.79-4.302 7.122-7.188 9.986-2.882 2.863-6.123 5.085-9.734 6.657-3.604 1.572-7.338 2.362-11.202 2.362-3.87 0-7.428-.823-10.69-2.467a24.69 24.69 0 01-8.296-6.765c-2.273-2.864-3.949-6.235-5.046-10.095-1.087-3.867-1.4-7.948-.942-12.244.458-4.293 1.64-8.339 3.555-12.135 1.91-3.786 4.303-7.086 7.175-9.874a34.351 34.351 0 019.737-6.663c3.61-1.641 7.343-2.468 11.213-2.468 3.864 0 7.434.788 10.699 2.36a24.109 24.109 0 018.323 6.557c2.277 2.79 3.962 6.08 5.065 9.874 1.092 3.792 1.405 7.916.932 12.349-.49 4.581-1.69 8.77-3.601 12.565m20.877-53.588c-4.173-5.152-9.293-9.198-15.352-12.128-6.057-2.937-12.733-4.402-20.037-4.402-6.732 0-13.094 1.25-19.087 3.752a54.445 54.445 0 00-16.144 10.418l1.241-11.596h-27.277l-17.096 159.783h28.57l6.406-59.92c3.71 4.156 8.197 7.379 13.461 9.667 5.27 2.289 11.124 3.433 17.566 3.433 7.304 0 14.294-1.465 20.98-4.403 6.681-2.93 12.673-7.011 17.954-12.234 5.29-5.226 9.703-11.388 13.252-18.474 3.55-7.09 5.764-14.71 6.636-22.873.872-8.16.29-15.747-1.749-22.767-2.044-7.009-5.152-13.097-9.324-18.256m52.8 66.579c-3.177-3.144-4.343-8.59-3.515-16.321l4.183-39.087h19.968l2.687-25.127h-19.962l3.006-28.132h-28.35l-9.857 92.13c-.812 7.593-.47 14.43 1.023 20.51 1.496 6.09 4.097 11.206 7.806 15.355 3.71 4.156 8.542 7.163 14.499 9.02 5.959 1.857 13.064 2.367 21.32 1.504l2.757-25.772c-7.209.43-12.4-.93-15.565-4.08m26.639 30.068h28.346l11.84-110.603H681.02l-11.837 110.603m126.85-42.392c-1.84 3.836-4.164 7.147-6.964 9.919-2.804 2.765-5.928 4.902-9.377 6.396-3.461 1.493-7.048 2.238-10.767 2.238-3.724 0-7.188-.745-10.396-2.238a21.432 21.432 0 01-8.012-6.396c-2.138-2.772-3.714-6.083-4.736-9.919-1.021-3.84-1.281-8.113-.777-12.807.499-4.692 1.68-9.026 3.54-13.01 1.86-3.979 4.152-7.395 6.896-10.242 2.737-2.842 5.868-5.045 9.403-6.61 3.529-1.564 7.16-2.347 10.88-2.347 3.722 0 7.144.783 10.274 2.347 3.126 1.565 5.79 3.768 7.992 6.61 2.2 2.847 3.806 6.263 4.807 10.242 1.003 3.984 1.257 8.318.759 13.01-.506 4.694-1.676 8.967-3.522 12.807m19.954-54.728c-4.512-5.241-9.966-9.34-16.367-12.283-6.408-2.946-13.463-4.424-21.181-4.424-7.712 0-15.092 1.478-22.118 4.424a62.49 62.49 0 00-18.896 12.283c-5.554 5.248-10.185 11.425-13.876 18.54-3.693 7.117-5.982 14.833-6.869 23.17-.892 8.337-.255 16.031 1.919 23.066 2.178 7.039 5.494 13.15 9.937 18.325 4.447 5.173 9.877 9.231 16.279 12.18 6.396 2.943 13.456 4.412 21.174 4.412s15.088-1.47 22.122-4.412a64.88 64.88 0 0018.986-12.18c5.63-5.174 10.282-11.286 13.96-18.325 3.686-7.035 5.979-14.73 6.867-23.065.89-8.338.248-16.054-1.915-23.171-2.168-7.115-5.509-13.292-10.022-18.54m116.256-2.852c-3.278-4.221-7.464-7.519-12.58-9.88-5.115-2.361-10.895-3.54-17.342-3.54-6.006 0-11.512 1.217-16.497 3.647-4.987 2.434-9.493 5.733-13.512 9.881l1.152-10.739h-27.057l-11.843 110.603h28.35l6.92-64.641c.673-6.303 3.195-11.522 7.585-15.682 4.382-4.149 9.79-6.229 16.237-6.229 4.721 0 8.357.83 10.905 2.47 2.536 1.653 4.362 3.653 5.474 6.015 1.106 2.367 1.741 4.802 1.9 7.304.165 2.503.165 4.543-.006 6.122l-6.913 64.641h28.344l6.913-64.641c.784-7.304.455-13.964-.976-19.976-1.43-6.01-3.784-11.135-7.054-15.355m54.376 70.009c-3.188-3.074-4.348-8.553-3.511-16.426l12.136-113.394h-28.355L954.76 181.08c-.808 7.59-.474 14.429 1 20.507 1.484 6.089 4.07 11.167 7.753 15.247 3.685 4.082 8.493 7.058 14.425 8.915 5.934 1.857 13.024 2.367 21.279 1.504l2.759-25.772c-7.066.43-12.186-.89-15.356-3.975m50.83-37.474c2.69-6.445 6.675-11.563 11.95-15.356 5.27-3.792 11.132-5.687 17.573-5.687 6.871 0 12.58 1.895 17.114 5.687 4.53 3.793 7.314 8.91 8.345 15.356h-54.983m72.131-27.812c-4.519-5.935-10.232-10.45-17.132-13.527-6.901-3.078-14.433-4.617-22.587-4.617-7.738 0-15.201 1.539-22.406 4.617-7.2 3.078-13.66 7.23-19.371 12.455-5.719 5.225-10.453 11.38-14.22 18.473-3.764 7.084-6.07 14.638-6.928 22.652-.859 8.02-.16 15.534 2.092 22.551 2.255 7.017 5.685 13.141 10.276 18.367 4.597 5.223 10.172 9.337 16.72 12.34 6.555 3.013 13.69 4.51 21.427 4.51 13.882 0 25.818-3.466 35.789-10.41 9.981-6.945 17.221-16.076 21.728-27.382h-30.279c-2.917 4.436-6.59 7.692-11.033 9.767-4.455 2.081-9.036 3.119-13.756 3.119-6.732 0-12.355-1.933-16.887-5.8-4.524-3.866-7.356-9.239-8.472-16.11h83.543c2.16-10.88 2.419-20.618.759-29.201-1.656-8.596-4.747-15.857-9.263-21.804m103.01 35.861c-3.882-2.498-8.64-4.505-14.28-6.01-5.637-1.506-11.837-2.822-18.58-3.974-6.753-1.144-11.991-2.361-15.715-3.646-3.731-1.29-5.444-3.364-5.138-6.228.215-2.007 1.856-3.975 4.927-5.91 3.065-1.93 7.901-2.896 14.488-2.896 5.292 0 9.385.895 12.277 2.686 2.886 1.792 4.622 3.97 5.199 6.545h29.427c-.303-5.15-1.595-9.879-3.848-14.173-2.266-4.296-5.351-7.942-9.244-10.952-3.908-3.012-8.49-5.332-13.751-6.978-5.272-1.645-11.053-2.469-17.347-2.469-8.021 0-15.112 1.037-21.278 3.112-6.163 2.073-11.36 4.761-15.572 8.052-4.214 3.301-7.516 7.085-9.915 11.383-2.395 4.293-3.816 8.59-4.275 12.884-.662 6.161.264 11.205 2.783 15.146 2.507 3.938 5.923 7.12 10.245 9.552 4.328 2.436 9.108 4.264 14.346 5.482a183.9 183.9 0 0015.26 2.894c4.792.723 8.646 1.471 11.573 2.258 2.92.786 5.193 1.61 6.82 2.468 1.63.86 2.661 1.864 3.11 3.008.45 1.145.594 2.506.43 4.081-.353 3.293-2.523 5.76-6.48 7.407-3.976 1.646-8.825 2.469-14.55 2.469-2.147 0-4.382-.213-6.702-.643a22.806 22.806 0 01-6.521-2.256 23.703 23.703 0 01-5.484-3.973c-1.62-1.57-2.802-3.573-3.54-6.013h-28.779c.216 6.013 1.53 11.38 3.964 16.108 2.428 4.726 5.755 8.77 9.977 12.136 4.223 3.366 9.248 5.942 15.072 7.728 5.819 1.786 12.236 2.682 19.251 2.682 7.013 0 13.596-.927 19.735-2.789 6.142-1.859 11.541-4.437 16.181-7.727 4.648-3.298 8.432-7.232 11.365-11.815 2.915-4.582 4.671-9.586 5.25-15.033.648-6.014 0-10.984-1.946-14.924-1.938-3.942-4.852-7.16-8.736-9.672m114.73 9.672c-1.939-3.942-4.851-7.16-8.734-9.672-3.884-2.498-8.645-4.505-14.285-6.01-5.639-1.506-11.83-2.822-18.583-3.974-6.749-1.144-11.985-2.361-15.714-3.646-3.73-1.29-5.439-3.364-5.136-6.228.218-2.007 1.856-3.975 4.926-5.91 3.076-1.93 7.902-2.896 14.488-2.896 5.298 0 9.39.895 12.278 2.686 2.885 1.792 4.621 3.97 5.204 6.545h29.421c-.304-5.15-1.59-9.879-3.848-14.173-2.264-4.296-5.347-7.942-9.244-10.952-3.908-3.012-8.487-5.332-13.752-6.978-5.27-1.645-11.048-2.469-17.345-2.469-8.018 0-15.112 1.037-21.275 3.112-6.167 2.073-11.357 4.761-15.57 8.052-4.22 3.301-7.525 7.085-9.918 11.383-2.397 4.293-3.813 8.59-4.277 12.884-.658 6.161.268 11.205 2.782 15.146 2.508 3.938 5.927 7.12 10.25 9.552 4.324 2.436 9.109 4.264 14.338 5.482 5.248 1.216 10.326 2.18 15.263 2.894 4.797.723 8.652 1.471 11.577 2.258 2.916.786 5.19 1.61 6.816 2.468 1.631.86 2.667 1.864 3.12 3.008.446 1.145.59 2.506.42 4.081-.349 3.293-2.518 5.76-6.481 7.407-3.973 1.646-8.82 2.469-14.55 2.469-2.147 0-4.375-.213-6.695-.643a22.811 22.811 0 01-6.527-2.256 23.532 23.532 0 01-5.479-3.973c-1.626-1.57-2.808-3.573-3.54-6.013h-28.78c.216 6.013 1.538 11.38 3.964 16.108 2.43 4.726 5.762 8.77 9.979 12.136 4.217 3.366 9.243 5.942 15.067 7.728 5.822 1.786 12.24 2.682 19.256 2.682 7.009 0 13.59-.927 19.734-2.789 6.136-1.859 11.536-4.437 16.182-7.727 4.642-3.298 8.432-7.232 11.358-11.815 2.923-4.582 4.672-9.586 5.255-15.033.645-6.014-.005-10.984-1.945-14.924"
        fill="#fff" />
    <path
        d="M590.67 286.503c-.867-.191-1.614-.535-2.238-1.054-.627-.513-1.087-1.23-1.38-2.13-.295-.912-.37-2.07-.215-3.466l1.631-15.22h7.233l.54-5.009h-7.245l.732-6.81h-5.259l-2.892 27.04c-.214 2.015-.094 3.803.368 5.346.454 1.547 1.187 2.825 2.19 3.839.986 1.009 2.244 1.725 3.744 2.132 1.506.415 3.197.518 5.076.308l.517-4.823c-1.001.085-1.939.033-2.801-.153m36.681-6.284a13.314 13.314 0 01-2.727 3.748 13.404 13.404 0 01-3.7 2.504 10.23 10.23 0 01-4.278.929c-1.48 0-2.842-.31-4.068-.93a9.567 9.567 0 01-3.14-2.503c-.858-1.055-1.487-2.3-1.886-3.748-.409-1.443-.518-2.966-.354-4.572a14.163 14.163 0 011.336-4.672c.724-1.466 1.616-2.735 2.698-3.806a13.194 13.194 0 013.684-2.57 9.948 9.948 0 014.274-.959c1.49 0 2.85.317 4.073.958a10.07 10.07 0 013.16 2.571c.873 1.071 1.51 2.34 1.915 3.806.404 1.458.514 3.018.334 4.672a13.549 13.549 0 01-1.321 4.572zm3.241-16.452c-1.257-1.527-2.817-2.736-4.681-3.622-1.876-.884-3.935-1.328-6.204-1.328a16.04 16.04 0 00-6.452 1.328 18.724 18.724 0 00-5.464 3.622 19.429 19.429 0 00-3.968 5.347 18.413 18.413 0 00-1.94 6.533c-.244 2.306-.07 4.458.548 6.465.61 1.997 1.556 3.75 2.839 5.253 1.28 1.506 2.845 2.695 4.69 3.564 1.85.868 3.904 1.296 6.172 1.296 2.27 0 4.428-.428 6.482-1.296a18.008 18.008 0 005.454-3.564 19.735 19.735 0 003.934-5.253 17.985 17.985 0 001.925-6.465c.25-2.311.07-4.486-.533-6.533-.608-2.04-1.54-3.828-2.802-5.347m61.16 16.452c-.712 1.448-1.598 2.705-2.661 3.777a12.144 12.144 0 01-3.644 2.535 10.212 10.212 0 01-4.272.932c-1.49 0-2.848-.31-4.084-.932a9.527 9.527 0 01-3.156-2.535c-.877-1.072-1.525-2.33-1.95-3.777-.418-1.443-.549-2.966-.38-4.572.175-1.654.64-3.2 1.366-4.643a14.493 14.493 0 012.764-3.806 12.509 12.509 0 013.704-2.565 10.221 10.221 0 014.279-.929c1.48 0 2.841.31 4.073.93a8.774 8.774 0 013.101 2.564c.828 1.093 1.442 2.362 1.85 3.806.404 1.443.508 2.99.334 4.643a13.383 13.383 0 01-1.324 4.572zm3.342-16.483c-1.244-1.503-2.796-2.705-4.656-3.59-1.868-.885-3.934-1.329-6.202-1.329-2.309 0-4.462.547-6.458 1.64-1.988 1.092-3.648 2.424-4.97 3.986l2.03-18.99h-5.26l-4.923 46.026h5.07l.55-5.135c.943 1.653 2.313 3.056 4.135 4.205 1.813 1.158 3.893 1.736 6.246 1.736 2.263 0 4.427-.434 6.482-1.302a17.296 17.296 0 005.424-3.583 19.949 19.949 0 003.88-5.32 18.661 18.661 0 001.898-6.5c.248-2.312.08-4.488-.502-6.527-.588-2.041-1.508-3.812-2.744-5.317m17.34 8.507c.481-1.366 1.134-2.582 1.972-3.653a14.345 14.345 0 012.761-2.722 11.95 11.95 0 013.216-1.695 10.138 10.138 0 013.375-.593c1.153 0 2.253.21 3.301.618a8.975 8.975 0 012.812 1.766 10.051 10.051 0 012.085 2.755c.568 1.065.943 2.245 1.142 3.524zm25.46-2.908c-.644-2.228-1.642-4.126-2.978-5.695a13.422 13.422 0 00-4.785-3.584 14.18 14.18 0 00-5.87-1.239c-2.223 0-4.362.444-6.391 1.328a19.027 19.027 0 00-5.454 3.591c-1.606 1.505-2.938 3.276-4.002 5.317a18.163 18.163 0 00-1.96 6.527c-.256 2.35-.067 4.537.557 6.56.633 2.023 1.601 3.777 2.901 5.26 1.307 1.481 2.902 2.66 4.792 3.53 1.89.867 3.984 1.295 6.298 1.295 3.709 0 6.965-.92 9.757-2.756 2.797-1.833 4.93-4.457 6.41-7.885h-5.569c-1.061 1.859-2.441 3.297-4.148 4.333-1.689 1.03-3.673 1.546-5.942 1.546-1.32 0-2.574-.244-3.76-.716a9.269 9.269 0 01-3.146-2.071c-.916-.905-1.645-2.01-2.188-3.308-.54-1.3-.802-2.776-.793-4.425h26.79c.303-2.846.127-5.382-.52-7.608m59.262 14.225l-4.25-23.936h-5.437l-9.37 23.936-4.243-23.936h-5.507l6.116 31.855h5.451l9.412-24.372 4.2 24.372h5.501l12.935-31.855h-5.504l-9.304 23.936m20.188 7.919h5.255l3.41-31.855h-5.258l-3.407 31.855m3.919-36.682h5.261l.67-6.25h-5.26l-.671 6.25M845 286.503c-.863-.191-1.61-.535-2.235-1.054-.622-.513-1.086-1.23-1.378-2.13-.292-.912-.37-2.07-.222-3.466l1.632-15.22h7.228l.54-5.009h-7.237l.73-6.81h-5.26l-2.887 27.04c-.215 2.015-.1 3.803.364 5.346.464 1.547 1.188 2.825 2.189 3.839.997 1.009 2.243 1.725 3.744 2.132 1.505.415 3.2.518 5.076.308l.513-4.823a9.447 9.447 0 01-2.797-.153m38.375-23.913c-.916-1.192-2.108-2.122-3.559-2.786-1.46-.66-3.156-.987-5.096-.987-1.9 0-3.655.359-5.28 1.081-1.625.722-3.047 1.7-4.243 2.94l1.86-17.385h-5.26l-4.92 46.026h5.255l2.083-19.483a9.363 9.363 0 01.978-3.308 8.915 8.915 0 012.014-2.633 9.327 9.327 0 012.841-1.764 9.052 9.052 0 013.416-.65c2.592 0 4.456.795 5.584 2.384 1.137 1.584 1.57 3.619 1.307 6.095l-2.075 19.359h5.19l2.055-19.175c.21-1.985.14-3.794-.22-5.443-.364-1.652-.998-3.072-1.93-4.27m37.529 17.628c-.717 1.448-1.615 2.693-2.716 3.748a13.556 13.556 0 01-3.707 2.504 10.248 10.248 0 01-4.276.929c-1.486 0-2.846-.31-4.074-.93a9.586 9.586 0 01-3.142-2.503c-.85-1.055-1.48-2.3-1.884-3.748-.404-1.443-.52-2.966-.349-4.572a13.92 13.92 0 011.341-4.672c.714-1.466 1.611-2.735 2.688-3.806a13.175 13.175 0 013.684-2.57 9.954 9.954 0 014.279-.959c1.487 0 2.841.317 4.072.958a10.09 10.09 0 013.161 2.571c.874 1.071 1.511 2.34 1.91 3.806.404 1.458.514 3.018.334 4.672a13.423 13.423 0 01-1.321 4.572zm3.245-16.452c-1.261-1.527-2.821-2.736-4.69-3.622-1.866-.884-3.931-1.328-6.194-1.328-2.273 0-4.421.444-6.45 1.328a18.689 18.689 0 00-5.464 3.622 19.504 19.504 0 00-3.975 5.347 18.718 18.718 0 00-1.94 6.533c-.244 2.306-.059 4.458.548 6.465.613 1.997 1.561 3.75 2.843 5.253a13.82 13.82 0 004.692 3.564c1.844.868 3.898 1.296 6.173 1.296 2.263 0 4.427-.428 6.475-1.296a18.121 18.121 0 005.461-3.564 20.023 20.023 0 003.933-5.253 18.056 18.056 0 001.919-6.465c.25-2.311.076-4.486-.528-6.533-.613-2.04-1.55-3.828-2.803-5.347m34.323 15.403a8.907 8.907 0 01-1.001 3.307 9.516 9.516 0 01-2.044 2.632 9.179 9.179 0 01-6.134 2.354c-2.553 0-4.422-.763-5.598-2.295-1.178-1.524-1.63-3.563-1.356-6.124l2.078-19.42h-5.194l-2.048 19.174c-.216 1.985-.136 3.782.222 5.41.359 1.636 1.008 3.043 1.931 4.247.917 1.192 2.108 2.118 3.564 2.778 1.456.66 3.155.992 5.095.992 1.974 0 3.784-.374 5.434-1.111a13.205 13.205 0 004.294-3.1l-.37 3.465h5.072l3.41-31.855h-5.26l-2.095 19.545m26.285 7.334c-.861-.191-1.609-.535-2.237-1.054-.624-.513-1.083-1.23-1.381-2.13-.294-.912-.364-2.07-.215-3.466l1.625-15.22h7.234l.538-5.009h-7.234l.728-6.81h-5.255l-2.89 27.04c-.22 2.015-.1 3.803.358 5.346.468 1.547 1.196 2.825 2.188 3.839 1.003 1.009 2.25 1.725 3.75 2.132 1.506.415 3.195.518 5.07.308l.519-4.823a9.428 9.428 0 01-2.798-.153m39.163-14.26a12.745 12.745 0 011.976-3.653 14.137 14.137 0 012.767-2.722 11.724 11.724 0 013.217-1.695 10.103 10.103 0 013.37-.593 8.906 8.906 0 016.11 2.384 10.05 10.05 0 012.097 2.755 10.798 10.798 0 011.131 3.524zm25.47-2.908c-.649-2.228-1.65-4.126-2.987-5.695a13.332 13.332 0 00-4.776-3.584 14.23 14.23 0 00-5.87-1.239c-2.229 0-4.356.444-6.392 1.328a18.984 18.984 0 00-5.452 3.591 19.492 19.492 0 00-4.005 5.317 18.228 18.228 0 00-1.968 6.527c-.25 2.35-.063 4.537.57 6.56.622 2.023 1.587 3.777 2.9 5.26 1.305 1.481 2.9 2.66 4.789 3.53 1.885.867 3.985 1.295 6.293 1.295 3.71 0 6.965-.92 9.761-2.756 2.795-1.833 4.934-4.457 6.408-7.885h-5.565c-1.067 1.859-2.447 3.297-4.147 4.333-1.696 1.03-3.68 1.546-5.941 1.546-1.323 0-2.585-.244-3.761-.716a9.244 9.244 0 01-3.152-2.071c-.915-.905-1.644-2.01-2.182-3.308-.54-1.3-.809-2.776-.793-4.425h26.788c.299-2.846.128-5.382-.519-7.608m36.826-9.711h-6.431l-8.643 11.38-6.21-11.38h-6.432l8.994 15.398-13.142 16.457h6.437l9.493-12.435 6.834 12.435h6.437l-9.683-16.457 12.346-15.398m13.945 7.546a13.246 13.246 0 013.679-2.572 9.995 9.995 0 014.284-.958c2.098 0 3.878.537 5.325 1.607 1.461 1.077 2.541 2.474 3.265 4.21h5.631c-.367-1.604-.948-3.066-1.757-4.362a13.014 13.014 0 00-2.987-3.342 13.74 13.74 0 00-4.037-2.165c-1.506-.51-3.156-.77-4.927-.77a15.74 15.74 0 00-6.332 1.327 19.064 19.064 0 00-5.453 3.591c-1.607 1.505-2.943 3.276-4.004 5.317a18.195 18.195 0 00-1.964 6.527c-.25 2.31-.06 4.479.573 6.5.628 2.015 1.579 3.781 2.861 5.285a13.873 13.873 0 004.696 3.564c1.846.868 3.864 1.296 6.054 1.296 3.584 0 6.785-.97 9.613-2.909 2.832-1.94 4.944-4.513 6.365-7.732h-5.628a12.745 12.745 0 01-4.133 4.21c-1.697 1.07-3.604 1.606-5.704 1.606-1.487 0-2.848-.31-4.079-.93a9.265 9.265 0 01-3.132-2.537c-.856-1.072-1.485-2.323-1.888-3.744-.404-1.42-.518-2.957-.34-4.609a13.563 13.563 0 011.328-4.64c.712-1.442 1.61-2.7 2.691-3.77m35.185 5.073a12.815 12.815 0 011.964-3.653 14.607 14.607 0 012.768-2.722 11.989 11.989 0 013.216-1.695 10.15 10.15 0 013.375-.593c1.157 0 2.253.21 3.304.618a9.033 9.033 0 012.815 1.766 9.975 9.975 0 012.077 2.755 10.813 10.813 0 011.143 3.524zm25.458-2.908c-.643-2.228-1.639-4.126-2.976-5.695a13.366 13.366 0 00-4.783-3.584 14.202 14.202 0 00-5.868-1.239 15.88 15.88 0 00-6.39 1.328 19.17 19.17 0 00-5.46 3.591c-1.6 1.505-2.938 3.276-4.006 5.317a18.348 18.348 0 00-1.959 6.527c-.252 2.35-.064 4.537.564 6.56.63 2.023 1.596 3.777 2.898 5.26 1.312 1.481 2.906 2.66 4.79 3.53 1.891.867 3.99 1.295 6.298 1.295 3.714 0 6.97-.92 9.756-2.756 2.797-1.833 4.932-4.457 6.417-7.885h-5.573c-1.056 1.859-2.438 3.297-4.144 4.333-1.695 1.03-3.672 1.546-5.947 1.546a10.09 10.09 0 01-3.761-.716 9.238 9.238 0 01-3.144-2.071c-.919-.905-1.64-2.01-2.183-3.308-.545-1.3-.808-2.776-.795-4.425h26.783c.307-2.846.136-5.382-.517-7.608m36.222 10.763a14.987 14.987 0 01-2.666 3.806 11.946 11.946 0 01-3.646 2.567 10.286 10.286 0 01-4.273.929c-1.487 0-2.848-.31-4.079-.93a9.54 9.54 0 01-3.161-2.566c-.877-1.094-1.519-2.363-1.945-3.806-.423-1.442-.543-2.991-.367-4.643a13.043 13.043 0 011.356-4.578 14.013 14.013 0 012.752-3.77 13.188 13.188 0 013.71-2.54 10.307 10.307 0 014.277-.927c1.481 0 2.833.312 4.074.927a8.874 8.874 0 013.095 2.54c.839 1.072 1.457 2.326 1.861 3.77.398 1.444.514 2.974.344 4.578a13.744 13.744 0 01-1.332 4.643zm3.331-16.394c-1.241-1.53-2.79-2.724-4.661-3.59-1.862-.863-3.935-1.297-6.194-1.297-2.358 0-4.561.579-6.626 1.73-2.063 1.153-3.739 2.537-5.02 4.148l.544-5.071h-5.071l-4.925 46.024h5.254l2.03-18.992c.992 1.565 2.366 2.885 4.126 3.961 1.762 1.072 3.796 1.608 6.108 1.608 2.264 0 4.43-.428 6.478-1.296a17.47 17.47 0 005.429-3.593c1.567-1.527 2.857-3.308 3.877-5.347a19.077 19.077 0 001.911-6.534c.245-2.264.065-4.407-.519-6.43-.592-2.018-1.5-3.792-2.741-5.32m21.599 22.798c-.876-.191-1.616-.535-2.243-1.054-.63-.513-1.087-1.23-1.377-2.13-.3-.912-.375-2.07-.224-3.466l1.625-15.22h7.243l.54-5.009h-7.244l.728-6.81h-5.255l-2.892 27.04c-.216 2.015-.096 3.803.368 5.346.459 1.547 1.19 2.825 2.183 3.839 1.004 1.009 2.25 1.725 3.756 2.132 1.494.415 3.186.518 5.064.308l.518-4.823a9.38 9.38 0 01-2.79-.153m15.849-31.706h5.26l.673-6.25h-5.261l-.672 6.25m-3.919 36.682h5.26l3.407-31.855h-5.261l-3.406 31.855m42.865-11.26a13.085 13.085 0 01-2.72 3.748 13.457 13.457 0 01-3.698 2.504 10.265 10.265 0 01-4.279.929c-1.485 0-2.841-.31-4.078-.93a9.615 9.615 0 01-3.131-2.503c-.852-1.055-1.49-2.3-1.884-3.748-.408-1.443-.519-2.966-.35-4.572a13.85 13.85 0 011.337-4.672c.713-1.466 1.61-2.735 2.692-3.806a13.227 13.227 0 013.674-2.57 9.993 9.993 0 014.283-.959c1.488 0 2.844.317 4.075.958 1.228.643 2.284 1.5 3.156 2.571.876 1.071 1.521 2.34 1.909 3.806.408 1.458.513 3.018.339 4.672a13.287 13.287 0 01-1.326 4.572zm3.243-16.452c-1.254-1.527-2.821-2.736-4.681-3.622-1.864-.884-3.933-1.328-6.201-1.328-2.264 0-4.423.444-6.452 1.328a18.776 18.776 0 00-5.46 3.622c-1.611 1.52-2.931 3.306-3.974 5.347a18.606 18.606 0 00-1.94 6.533c-.244 2.306-.064 4.458.55 6.465.613 1.997 1.554 3.75 2.837 5.253a13.939 13.939 0 004.69 3.564c1.851.868 3.905 1.296 6.173 1.296 2.269 0 4.438-.428 6.482-1.296a18 18 0 005.45-3.564 19.73 19.73 0 003.94-5.253 18.21 18.21 0 001.933-6.465c.244-2.311.065-4.486-.548-6.533-.603-2.04-1.536-3.828-2.799-5.347m40.532 3.094c-.36-1.652-.997-3.072-1.926-4.27-.92-1.193-2.112-2.123-3.566-2.787-1.453-.66-3.154-.987-5.088-.987-1.94 0-3.75.38-5.416 1.147a13.243 13.243 0 00-4.321 3.12l.373-3.46h-5.077l-3.404 31.855h5.261l2.079-19.483a9.323 9.323 0 01.972-3.308 9 9 0 012.019-2.633 9.375 9.375 0 012.841-1.764 9.032 9.032 0 013.416-.65c2.552 0 4.401.795 5.56 2.384 1.147 1.584 1.595 3.619 1.325 6.095l-2.062 19.359h5.188l2.052-19.175c.206-1.985.138-3.794-.226-5.443"
        fill="#959595" />
    <path
        d="M716.984 85.745c-1.128 10.54-10.59 19.092-21.14 19.092-10.54 0-18.173-8.552-17.047-19.092 1.132-10.546 10.599-19.093 21.144-19.093 10.54 0 18.179 8.547 17.043 19.093m-505.217 90.978l-4.871 6.142-13.781 17.392 15.91 27.211h32zm-40.868.085l-40.052 50.66h32.004l21.673-27.353-9.936-16.995-3.69-6.312"
        fill="#4b8e33" />
    <path
        d="M194.561 146.87l-17.301-30.005h-32.89l31.42 53.751 13.63 23.319 18.683-23.574 19.274-24.28c151.979-177.344 412.384-87.633 438.5-77.909-335.153-124.784-471.316 78.699-471.316 78.699m471.316-78.699c.743.259 1.462.492 2.204.753 0 0-.773-.273-2.204-.753"
        fill="#4b8e33" />
    <path
        d="M1554.26 1214.1a60456.8 60456.8 0 00-239.08 11.83l-232.41 397.58h246.68l129.76-225.04s598.04 893.59 2005.7 893.59c423.68 0 920.91-81.02 1496.99-291.74-34.52 12.12-86.76 29.55-153.82 49.38-240.76 71.2-672.92 173.54-1165.04 173.54-641.76 0-1385.3-174.23-1937.71-818.85l-144.56-182.1-6.51-8.19"
        fill="url(#prefix__prefix__a)" transform="matrix(.13333 0 0 -.13333 0 333.333)" />
    <path
        d="M5218.83 1713.72c-73.8 0-128.6 55.91-128.68 127.66-.01 5.1.26 10.29.83 15.53 8.49 79.1 79.49 143.2 158.58 143.2 73.8 0 128.63-55.87 128.66-127.65 0-5.1-.27-10.29-.84-15.55-8.46-79.05-79.43-143.19-158.55-143.19"
        fill="url()" transform="matrix(.13333 0 0 -.13333 0 333.333)" />
</svg>